<?xml version="1.0" encoding="UTF-8" standalone="no"?>
<svg
   width="1200"
   height="391.95499"
   viewBox="0 0 1200 391.95499"
   version="1.1"
   id="svg17233"
   sodipodi:docname="tableExample.svg"
   xml:space="preserve"
   inkscape:version="1.2.2 (732a01da63, 2022-12-09)"
   xmlns:inkscape="http://www.inkscape.org/namespaces/inkscape"
   xmlns:sodipodi="http://sodipodi.sourceforge.net/DTD/sodipodi-0.dtd"
   xmlns="http://www.w3.org/2000/svg"
   xmlns:svg="http://www.w3.org/2000/svg"><defs
     id="defs17237" /><sodipodi:namedview
     id="namedview17235"
     pagecolor="#505050"
     bordercolor="#eeeeee"
     borderopacity="1"
     inkscape:showpageshadow="0"
     inkscape:pageopacity="0"
     inkscape:pagecheckerboard="0"
     inkscape:deskcolor="#505050"
     showgrid="false"
     inkscape:zoom="0.71299934"
     inkscape:cx="570.12676"
     inkscape:cy="301.54306"
     inkscape:window-width="1920"
     inkscape:window-height="1017"
     inkscape:window-x="-8"
     inkscape:window-y="-8"
     inkscape:window-maximized="1"
     inkscape:current-layer="svg17233" /><g
     id="table"><rect
       width="1200"
       height="48"
       fill="#ffffff"
       id="rect16727"
       x="0"
       y="0" /><g
       transform="translate(16,12)"
       id="g16733"><rect
         x="4"
         y="4"
         width="16"
         height="16"
         rx="3"
         fill="#ffffff"
         stroke="#bdbdbd"
         stroke-width="2"
         id="rect16729" /><rect
         width="24"
         height="24"
         fill="none"
         id="rect16731"
         x="0"
         y="0" /></g><rect
       width="1200"
       height="1"
       fill="#e0e0e0"
       id="rect16735"
       x="0"
       y="0" /><rect
       transform="translate(0,48)"
       width="1200"
       height="48"
       fill="#ffffff"
       id="rect16737"
       x="0"
       y="0" /><g
       transform="translate(16,60)"
       id="g16743"><rect
         x="4"
         y="4"
         width="16"
         height="16"
         rx="3"
         fill="#ffffff"
         stroke="#bdbdbd"
         stroke-width="2"
         id="rect16739" /><rect
         width="24"
         height="24"
         fill="none"
         id="rect16741"
         x="0"
         y="0" /></g><rect
       transform="translate(0,48)"
       width="1200"
       height="1"
       fill="#e0e0e0"
       id="rect16745"
       x="0"
       y="0" /><rect
       transform="translate(0,96)"
       width="1200"
       height="48"
       fill="#ffffff"
       id="rect16747"
       x="0"
       y="0" /><g
       transform="translate(16,108)"
       id="g16753"><rect
         x="4"
         y="4"
         width="16"
         height="16"
         rx="3"
         fill="#ffffff"
         stroke="#bdbdbd"
         stroke-width="2"
         id="rect16749" /><rect
         width="24"
         height="24"
         fill="none"
         id="rect16751"
         x="0"
         y="0" /></g><rect
       transform="translate(0,96)"
       width="1200"
       height="1"
       fill="#e0e0e0"
       id="rect16755"
       x="0"
       y="0" /><rect
       transform="translate(0,144)"
       width="1200"
       height="48"
       fill="#ffffff"
       id="rect16757"
       x="0"
       y="0" /><g
       transform="translate(16,156)"
       id="g16763"><rect
         x="4"
         y="4"
         width="16"
         height="16"
         rx="3"
         fill="#ffffff"
         stroke="#bdbdbd"
         stroke-width="2"
         id="rect16759" /><rect
         width="24"
         height="24"
         fill="none"
         id="rect16761"
         x="0"
         y="0" /></g><rect
       transform="translate(0,144)"
       width="1200"
       height="1"
       fill="#e0e0e0"
       id="rect16765"
       x="0"
       y="0" /><rect
       transform="translate(0,192)"
       width="1200"
       height="48"
       fill="#ffffff"
       id="rect16767"
       x="0"
       y="0" /><g
       transform="translate(16,204)"
       id="g16773"><rect
         x="4"
         y="4"
         width="16"
         height="16"
         rx="3"
         fill="#ffffff"
         stroke="#bdbdbd"
         stroke-width="2"
         id="rect16769" /><rect
         width="24"
         height="24"
         fill="none"
         id="rect16771"
         x="0"
         y="0" /></g><rect
       transform="translate(0,192)"
       width="1200"
       height="1"
       fill="#e0e0e0"
       id="rect16775"
       x="0"
       y="0" /><rect
       transform="translate(0,240)"
       width="1200"
       height="48"
       fill="#ffffff"
       id="rect16777"
       x="0"
       y="0" /><g
       transform="translate(16,252)"
       id="g16783"><rect
         x="4"
         y="4"
         width="16"
         height="16"
         rx="3"
         fill="#ffffff"
         stroke="#bdbdbd"
         stroke-width="2"
         id="rect16779" /><rect
         width="24"
         height="24"
         fill="none"
         id="rect16781"
         x="0"
         y="0" /></g><rect
       transform="translate(0,240)"
       width="1200"
       height="1"
       fill="#e0e0e0"
       id="rect16785"
       x="0"
       y="0" /><rect
       transform="translate(0,288)"
       width="1200"
       height="48"
       fill="#ffffff"
       id="rect16787"
       x="0"
       y="0" /><g
       transform="translate(16,300)"
       id="g16793"><rect
         x="4"
         y="4"
         width="16"
         height="16"
         rx="3"
         fill="#ffffff"
         stroke="#bdbdbd"
         stroke-width="2"
         id="rect16789" /><rect
         width="24"
         height="24"
         fill="none"
         id="rect16791"
         x="0"
         y="0" /></g><rect
       transform="translate(0,288)"
       width="1200"
       height="1"
       fill="#e0e0e0"
       id="rect16795"
       x="0"
       y="0" /><g
       transform="translate(16,348)"
       id="g16803"><rect
         width="24"
         height="24"
         fill="none"
         id="rect16801"
         x="0"
         y="0" /></g><rect
       transform="translate(0,336)"
       width="1200"
       height="1"
       fill="#e0e0e0"
       id="rect16805"
       x="0"
       y="0" /><g
       transform="translate(16,396)"
       id="g16813"><rect
         width="24"
         height="24"
         fill="none"
         id="rect16811"
         x="0"
         y="0" /></g><g
       transform="translate(16,444)"
       id="g16823"><rect
         width="24"
         height="24"
         fill="none"
         id="rect16821"
         x="0"
         y="0" /></g><g
       transform="translate(16,492)"
       id="g16833"><rect
         width="24"
         height="24"
         fill="none"
         id="rect16831"
         x="0"
         y="0" /></g><g
       id="g16881"><text
         transform="translate(73,29)"
         font-size="14px"
         font-family="Roboto-Medium, Roboto"
         id="text16839"><tspan
           x="0"
           y="0"
           style="font-weight:bold"
           id="tspan16837">Pseudo</tspan></text><text
         transform="translate(73,77)"
         font-size="14px"
         font-family="Roboto-Regular, Roboto"
         id="text16843"><tspan
           x="0"
           y="0"
           id="tspan16841">Ethel Altenwerth</tspan></text><text
         transform="translate(73,125)"
         font-size="14px"
         font-family="Roboto-Regular, Roboto"
         id="text16847"><tspan
           x="0"
           y="0"
           id="tspan16845">Stephanie Crooks</tspan></text><text
         transform="translate(73,173)"
         font-size="14px"
         font-family="Roboto-Regular, Roboto"
         id="text16851"><tspan
           x="0"
           y="0"
           id="tspan16849">Lana Casper</tspan></text><text
         transform="translate(73,221)"
         font-size="14px"
         font-family="Roboto-Regular, Roboto"
         id="text16855"><tspan
           x="0"
           y="0"
           id="tspan16853">Austin Crona</tspan></text><text
         transform="translate(73,269)"
         font-size="14px"
         font-family="Roboto-Regular, Roboto"
         id="text16859"><tspan
           x="0"
           y="0"
           id="tspan16857">Lucy Wunsch</tspan></text><text
         transform="translate(73,317)"
         font-size="14px"
         font-family="Roboto-Regular, Roboto"
         id="text16863"><tspan
           x="0"
           y="0"
           id="tspan16861">Grady Bosco</tspan></text></g><g
       id="g16927"><text
         transform="translate(253,29)"
         font-size="14px"
         font-family="Roboto-Medium, Roboto"
         id="text16885"><tspan
           x="0"
           y="0"
           style="font-weight:bold"
           id="tspan16883">Email</tspan></text><text
         transform="translate(253,77)"
         font-size="14px"
         font-family="Roboto-Regular, Roboto"
         id="text16889"><tspan
           x="0"
           y="0"
           id="tspan16887">Ethel93@gmail.com</tspan></text><text
         transform="translate(253,125)"
         font-size="14px"
         font-family="Roboto-Regular, Roboto"
         id="text16893"><tspan
           x="0"
           y="0"
           id="tspan16891">Stephanie75@yahoo.com</tspan></text><text
         transform="translate(253,173)"
         font-size="14px"
         font-family="Roboto-Regular, Roboto"
         id="text16897"><tspan
           x="0"
           y="0"
           id="tspan16895">Lana_Casper@gmail.com</tspan></text><text
         transform="translate(253,221)"
         font-size="14px"
         font-family="Roboto-Regular, Roboto"
         id="text16901"><tspan
           x="0"
           y="0"
           id="tspan16899">Austin.Crona@gmail.com</tspan></text><text
         transform="translate(253,269)"
         font-size="14px"
         font-family="Roboto-Regular, Roboto"
         id="text16905"><tspan
           x="0"
           y="0"
           id="tspan16903">Lucy_Wunsch@gmail.com</tspan></text><text
         transform="translate(253,317)"
         font-size="14px"
         font-family="Roboto-Regular, Roboto"
         id="text16909"><tspan
           x="0"
           y="0"
           id="tspan16907">Grady_Bosco@hotmail.com</tspan></text></g><g
       id="g16973"><text
         transform="translate(503,29)"
         font-size="14px"
         font-family="Roboto-Medium, Roboto"
         id="text16931"><tspan
           x="0"
           y="0"
           style="font-weight:bold"
           id="tspan16929">Country</tspan></text><text
         transform="translate(503,77)"
         font-size="14px"
         font-family="Roboto-Regular, Roboto"
         id="text16935"><tspan
           x="0"
           y="0"
           id="tspan16933">Cameroon</tspan></text><text
         transform="translate(503,125)"
         font-size="14px"
         font-family="Roboto-Regular, Roboto"
         id="text16939"><tspan
           x="0"
           y="0"
           id="tspan16937">Myanmar</tspan></text><text
         transform="translate(503,173)"
         font-size="14px"
         font-family="Roboto-Regular, Roboto"
         id="text16943"><tspan
           x="0"
           y="0"
           id="tspan16941">New Zealand</tspan></text><text
         transform="translate(503,221)"
         font-size="14px"
         font-family="Roboto-Regular, Roboto"
         id="text16947"><tspan
           x="0"
           y="0"
           id="tspan16945">Senegal</tspan></text><text
         transform="translate(503,269)"
         font-size="14px"
         font-family="Roboto-Regular, Roboto"
         id="text16951"><tspan
           x="0"
           y="0"
           id="tspan16949">Kuwait</tspan></text><text
         transform="translate(503,317)"
         font-size="14px"
         font-family="Roboto-Regular, Roboto"
         id="text16955"><tspan
           x="0"
           y="0"
           id="tspan16953">Saudi Arabia</tspan></text></g><g
       id="g17019"><text
         transform="translate(703,29)"
         font-size="14px"
         font-family="Roboto-Medium, Roboto"
         id="text16977"><tspan
           x="0"
           y="0"
           style="font-weight:bold"
           id="tspan16975">Created_at</tspan></text><text
         font-size="14px"
         font-family="Roboto-Regular, Roboto"
         id="text16981"
         x="697.04956"
         y="77"><tspan
           x="697.04956"
           y="77"
           id="tspan16979">6/17/2023 11:06:52 AM</tspan></text><text
         font-size="14px"
         font-family="Roboto-Regular, Roboto"
         id="text16985"
         x="697.04956"
         y="125"><tspan
           x="697.04956"
           y="125"
           id="tspan16983">5/8/2023 6:43:25 AM</tspan></text><text
         font-size="14px"
         font-family="Roboto-Regular, Roboto"
         id="text16989"
         x="697.04956"
         y="173"><tspan
           x="697.04956"
           y="173"
           id="tspan16987">4/13/2023 3:59:37 AM</tspan></text><text
         font-size="14px"
         font-family="Roboto-Regular, Roboto"
         id="text16993"
         x="697.04956"
         y="221"><tspan
           x="697.04956"
           y="221"
           id="tspan16991">4/10/2023 3:31:51 AM</tspan></text><text
         font-size="14px"
         font-family="Roboto-Regular, Roboto"
         id="text16997"
         x="697.04956"
         y="269"><tspan
           x="697.04956"
           y="269"
           id="tspan16995">4/2/2023 8:48:15 PM</tspan></text><text
         font-size="14px"
         font-family="Roboto-Regular, Roboto"
         id="text17001"
         x="697.04956"
         y="317"><tspan
           x="697.04956"
           y="317"
           id="tspan16999">3/23/2023 8:29:30 PM</tspan></text></g><g
       id="g17065"><text
         transform="translate(883,29)"
         font-size="14px"
         font-family="Roboto-Medium, Roboto"
         id="text17023"><tspan
           x="0"
           y="0"
           style="font-weight:bold"
           id="tspan17021">Updated_at</tspan></text><text
         font-size="14px"
         font-family="Roboto-Regular, Roboto"
         id="text17027"
         x="875.0661"
         y="77"><tspan
           x="875.0661"
           y="77"
           id="tspan17025">6/17/2023 11:06:52 AM</tspan></text><text
         font-size="14px"
         font-family="Roboto-Regular, Roboto"
         id="text17031"
         x="875.0661"
         y="125"><tspan
           x="875.0661"
           y="125"
           id="tspan17029">5/8/2023 6:43:25 AM</tspan></text><text
         font-size="14px"
         font-family="Roboto-Regular, Roboto"
         id="text17035"
         x="875.0661"
         y="173"><tspan
           x="875.0661"
           y="173"
           id="tspan17033">4/13/2023 3:59:37 AM</tspan></text><text
         font-size="14px"
         font-family="Roboto-Regular, Roboto"
         id="text17039"
         x="875.0661"
         y="221"><tspan
           x="875.0661"
           y="221"
           id="tspan17037">4/10/2023 3:31:51 AM</tspan></text><text
         font-size="14px"
         font-family="Roboto-Regular, Roboto"
         id="text17043"
         x="875.0661"
         y="269"><tspan
           x="875.0661"
           y="269"
           id="tspan17041">4/2/2023 8:48:15 PM</tspan></text><text
         font-size="14px"
         font-family="Roboto-Regular, Roboto"
         id="text17047"
         x="875.0661"
         y="317"><tspan
           x="875.0661"
           y="317"
           id="tspan17045">3/23/2023 8:29:30 PM</tspan></text></g><g
       id="g17111"><text
         transform="translate(1063,29)"
         font-size="14px"
         font-family="Roboto-Medium, Roboto"
         id="text17069"><tspan
           x="0"
           y="0"
           style="font-weight:bold"
           id="tspan17067" /></text></g><g
       id="g17157"><text
         transform="translate(1140,29)"
         font-size="14px"
         font-family="Roboto-Medium, Roboto"
         id="text17115"><tspan
           x="0"
           y="0"
           style="font-weight:bold"
           id="tspan17113" /></text></g><rect
       width="1"
       height="391.95499"
       fill="#e0e0e0"
       id="rect17159"
       x="0"
       y="0"
       style="stroke-width:0.861591" /><rect
       width="1"
       height="335.85397"
       fill="#e0e0e0"
       id="rect17161"
       x="56"
       y="0"
       style="stroke-width:0.797551" /><rect
       width="1"
       height="335.85397"
       fill="#e0e0e0"
       id="rect17163"
       x="236"
       y="0"
       style="stroke-width:0.797551" /><rect
       width="1"
       height="335.85397"
       fill="#e0e0e0"
       id="rect17165"
       x="486"
       y="0"
       style="stroke-width:0.797551" /><rect
       width="1"
       height="335.85397"
       fill="#e0e0e0"
       id="rect17167"
       x="686"
       y="0"
       style="stroke-width:0.797551" /><rect
       width="1"
       height="337.25647"
       fill="#e0e0e0"
       id="rect17169"
       x="866"
       y="0"
       style="stroke-width:0.799214" /><rect
       width="1"
       height="335.85397"
       fill="#e0e0e0"
       id="rect17171"
       x="1046"
       y="0"
       style="stroke-width:0.797551" /><rect
       width="1"
       height="335.85397"
       fill="#e0e0e0"
       id="rect17173"
       x="1123"
       y="0"
       style="stroke-width:0.797551" /><rect
       width="1"
       height="391.95499"
       fill="#e0e0e0"
       id="rect17175"
       x="1199"
       y="0"
       style="stroke-width:0.861591" /></g><g
     id="paging"
     transform="translate(0,335.85396)"><rect
       width="1200"
       height="56"
       fill="#f5f5f5"
       id="rect17178"
       x="0"
       y="0" /><text
       transform="translate(16,34)"
       fill="#212121"
       font-size="14px"
       font-family="Roboto-Regular, Roboto"
       id="text17186"><tspan
         x="0"
         y="0"
         id="tspan17180">Total:</tspan><tspan
         y="0"
         font-family="Roboto-Bold, Roboto"
         font-weight="700"
         id="tspan17182">100</tspan><tspan
         y="0"
         id="tspan17184">records</tspan></text><g
       transform="translate(823)"
       id="g17228"><text
         transform="translate(0,33)"
         fill="#616161"
         font-size="14px"
         font-family="Roboto-Regular, Roboto"
         id="text17190"><tspan
           x="0"
           y="0"
           id="tspan17188">Record/Page</tspan></text><g
         transform="translate(93,10)"
         id="g17204"><rect
           width="76"
           height="36"
           rx="4"
           fill="#ffffff"
           stroke="#e0e0e0"
           stroke-width="1"
           id="rect17192"
           x="0"
           y="0" /><text
           transform="translate(12,24)"
           fill="#212121"
           font-size="14px"
           font-family="Roboto-Regular, Roboto"
           id="text17196"><tspan
             x="0"
             y="0"
             id="tspan17194">50</tspan></text><g
           transform="translate(44,5)"
           id="g17202"><rect
             width="24"
             height="24"
             fill="#616161"
             opacity="0"
             id="rect17198"
             x="0"
             y="0" /><path
             d="m 12,15.5 a 1,1 0 0 1 -0.71,-0.29 l -4,-4 A 1.0040916,1.0040916 0 0 1 8.71,9.79 L 12,13.1 15.3,9.92 a 1,1 0 1 1 1.38,1.44 l -4,3.86 A 1,1 0 0 1 12,15.5 Z"
             fill="#424242"
             id="path17200" /></g></g><g
         transform="translate(305,16)"
         id="g17210"><rect
           width="24"
           height="23"
           fill="#424242"
           opacity="0"
           id="rect17206"
           x="0"
           y="0" /><path
           d="m 13.648,19 a 0.958,0.958 0 0 1 -0.756,-0.37 l -4.68,-6 a 1.025,1.025 0 0 1 0,-1.27 l 4.844,-6 a 0.95,0.95 0 0 1 1.366,-0.13 1.023,1.023 0 0 1 0.126,1.41 L 10.219,12 14.4,17.36 a 1.026,1.026 0 0 1 0.131,1.07 0.967,0.967 0 0 1 -0.886,0.57 z"
           fill="#bdbdbd"
           id="path17208" /></g><g
         transform="translate(337,16)"
         id="g17216"><rect
           width="24"
           height="24"
           fill="#424242"
           opacity="0"
           id="rect17212"
           x="0"
           y="0" /><path
           d="M 10,19 A 1,1 0 0 1 9.23,17.36 L 13.71,12 9.39,6.63 A 1.0222157,1.0222157 0 1 1 11,5.37 l 4.83,6 a 1,1 0 0 1 0,1.27 l -5,6 A 1,1 0 0 1 10,19 Z"
           fill="#424242"
           id="path17214" /></g><text
         transform="translate(201,33)"
         fill="#212121"
         font-size="14px"
         font-family="Roboto-Bold, Roboto"
         font-weight="700"
         id="text17226"><tspan
           x="0"
           y="0"
           id="tspan17218">1</tspan><tspan
           y="0"
           fill="#616161"
           id="tspan17220">-</tspan><tspan
           y="0"
           id="tspan17222">10</tspan><tspan
           y="0"
           fill="#616161"
           font-family="Roboto-Regular, Roboto"
           font-weight="400"
           id="tspan17224">records</tspan></text></g></g><path
     fill="#000000"
     d="m 1082.1226,59.57613 v -3.92969 a 1.3090234,1.3090234 0 0 1 1.309,-1.309023 h 10.4722 a 1.3090234,1.3090234 0 0 1 1.309,1.309023 v 3.92969 h 10.4722 a 1.3090234,1.3090234 0 1 1 0,2.618046 h -34.0346 a 1.3090234,1.3090234 0 0 1 0,-2.618046 z m 2.618,0 h 7.8542 v -2.618049 h -7.8542 z m -9.1631,31.416559 a 1.3090234,1.3090234 0 0 1 -1.3091,-1.30902 V 62.194176 h 28.7986 v 27.489493 a 1.3090234,1.3090234 0 0 1 -1.3091,1.30902 z m 9.1631,-7.85414 a 1.3090234,1.3090234 0 0 0 1.3091,-1.30902 V 68.739294 a 1.30905,1.30905 0 0 0 -2.6181,0 v 13.090235 a 1.3090234,1.3090234 0 0 0 1.309,1.30902 z m 7.8542,0 a 1.3090234,1.3090234 0 0 0 1.309,-1.30902 V 68.739294 a 1.30905,1.30905 0 0 0 -2.6181,0 v 13.090235 a 1.3090234,1.3090234 0 0 0 1.3091,1.30902 z"
     id="path17356"
     style="stroke-width:0.040907" /><path
     fill="#000000"
     d="m 1082.1206,106.33117 v -3.92969 a 1.3090234,1.3090234 0 0 1 1.309,-1.30903 h 10.4722 a 1.3090234,1.3090234 0 0 1 1.309,1.30903 v 3.92969 h 10.4722 a 1.3090234,1.3090234 0 1 1 0,2.61804 h -34.0346 a 1.3090234,1.3090234 0 0 1 0,-2.61804 z m 2.618,0 h 7.8542 v -2.61805 h -7.8542 z m -9.1631,31.41656 a 1.3090234,1.3090234 0 0 1 -1.3091,-1.30902 v -27.4895 h 28.7986 v 27.4895 a 1.3090234,1.3090234 0 0 1 -1.3091,1.30902 z m 9.1631,-7.85414 a 1.3090234,1.3090234 0 0 0 1.3091,-1.30902 v -13.09024 a 1.30905,1.30905 0 0 0 -2.6181,0 v 13.09024 a 1.3090234,1.3090234 0 0 0 1.309,1.30902 z m 7.8542,0 a 1.3090234,1.3090234 0 0 0 1.309,-1.30902 v -13.09024 a 1.30905,1.30905 0 0 0 -2.6181,0 v 13.09024 a 1.3090234,1.3090234 0 0 0 1.3091,1.30902 z"
     id="path17356-6"
     style="stroke-width:0.040907" /><path
     fill="#000000"
     d="m 1082.1236,154.80339 v -3.92969 a 1.3090234,1.3090234 0 0 1 1.309,-1.30902 h 10.4722 a 1.3090234,1.3090234 0 0 1 1.309,1.30902 v 3.92969 h 10.4722 a 1.309025,1.309025 0 1 1 0,2.61805 h -34.0346 a 1.309025,1.309025 0 0 1 0,-2.61805 z m 2.618,0 h 7.8542 v -2.61805 h -7.8542 z m -9.1631,31.41656 a 1.3090234,1.3090234 0 0 1 -1.3091,-1.30902 v -27.48949 h 28.7986 v 27.48949 a 1.3090234,1.3090234 0 0 1 -1.3091,1.30902 z m 9.1631,-7.85414 a 1.3090234,1.3090234 0 0 0 1.3091,-1.30902 v -13.09023 a 1.30905,1.30905 0 0 0 -2.6181,0 v 13.09023 a 1.3090234,1.3090234 0 0 0 1.309,1.30902 z m 7.8542,0 a 1.3090234,1.3090234 0 0 0 1.309,-1.30902 v -13.09023 a 1.30905,1.30905 0 0 0 -2.6181,0 v 13.09023 a 1.3090234,1.3090234 0 0 0 1.3091,1.30902 z"
     id="path17356-2"
     style="stroke-width:0.040907" /><path
     fill="#000000"
     d="m 1082.1236,202.40419 v -3.92969 a 1.3090234,1.3090234 0 0 1 1.309,-1.30902 h 10.4722 a 1.3090234,1.3090234 0 0 1 1.309,1.30902 v 3.92969 h 10.4722 a 1.309025,1.309025 0 1 1 0,2.61805 h -34.0346 a 1.309025,1.309025 0 0 1 0,-2.61805 z m 2.618,0 h 7.8542 v -2.61805 h -7.8542 z m -9.1631,31.41656 a 1.3090234,1.3090234 0 0 1 -1.3091,-1.30902 v -27.48949 h 28.7986 v 27.48949 a 1.3090234,1.3090234 0 0 1 -1.3091,1.30902 z m 9.1631,-7.85414 a 1.3090234,1.3090234 0 0 0 1.3091,-1.30902 v -13.09024 a 1.30905,1.30905 0 0 0 -2.6181,0 v 13.09024 a 1.3090234,1.3090234 0 0 0 1.309,1.30902 z m 7.8542,0 a 1.3090234,1.3090234 0 0 0 1.309,-1.30902 v -13.09024 a 1.30905,1.30905 0 0 0 -2.6181,0 v 13.09024 a 1.3090234,1.3090234 0 0 0 1.3091,1.30902 z"
     id="path17356-27"
     style="stroke-width:0.040907" /><path
     fill="#000000"
     d="m 1082.1236,250.67101 v -3.92969 a 1.3090234,1.3090234 0 0 1 1.309,-1.30902 h 10.4722 a 1.3090234,1.3090234 0 0 1 1.309,1.30902 v 3.92969 h 10.4722 a 1.309025,1.309025 0 1 1 0,2.61805 h -34.0346 a 1.309025,1.309025 0 0 1 0,-2.61805 z m 2.618,0 h 7.8542 v -2.61805 h -7.8542 z m -9.1631,31.41656 a 1.3090234,1.3090234 0 0 1 -1.3091,-1.30902 v -27.48949 h 28.7986 v 27.48949 a 1.3090234,1.3090234 0 0 1 -1.3091,1.30902 z m 9.1631,-7.85414 a 1.3090234,1.3090234 0 0 0 1.3091,-1.30902 v -13.09024 a 1.30905,1.30905 0 0 0 -2.6181,0 v 13.09024 a 1.3090234,1.3090234 0 0 0 1.309,1.30902 z m 7.8542,0 a 1.3090234,1.3090234 0 0 0 1.309,-1.30902 v -13.09024 a 1.30905,1.30905 0 0 0 -2.6181,0 v 13.09024 a 1.3090234,1.3090234 0 0 0 1.3091,1.30902 z"
     id="path17356-8"
     style="stroke-width:0.040907" /><path
     fill="#000000"
     d="m 1082.1236,299.0788 v -3.92969 a 1.3090234,1.3090234 0 0 1 1.309,-1.30902 h 10.4722 a 1.3090234,1.3090234 0 0 1 1.309,1.30902 v 3.92969 h 10.4722 a 1.309025,1.309025 0 1 1 0,2.61805 h -34.0346 a 1.309025,1.309025 0 0 1 0,-2.61805 z m 2.618,0 h 7.8542 v -2.61805 h -7.8542 z m -9.1631,31.41656 a 1.3090234,1.3090234 0 0 1 -1.3091,-1.30902 v -27.48949 h 28.7986 v 27.48949 a 1.3090234,1.3090234 0 0 1 -1.3091,1.30902 z m 9.1631,-7.85414 a 1.3090234,1.3090234 0 0 0 1.3091,-1.30902 v -13.09024 a 1.30905,1.30905 0 0 0 -2.6181,0 v 13.09024 a 1.3090234,1.3090234 0 0 0 1.309,1.30902 z m 7.8542,0 a 1.3090234,1.3090234 0 0 0 1.309,-1.30902 v -13.09024 a 1.30905,1.30905 0 0 0 -2.6181,0 v 13.09024 a 1.3090234,1.3090234 0 0 0 1.3091,1.30902 z"
     id="path17356-4"
     style="stroke-width:0.040907" /><path
     fill="#231f20"
     d="m 1180.0742,64.596156 -8.9431,-8.941419 c -0.9121,-0.912649 -2.3906,-0.912649 -3.3033,0 l -24.4401,24.442494 v 12.244013 h 12.2463 l 24.4402,-24.43957 c 0.9126,-0.915572 0.9126,-2.391108 0,-3.305518 z m -26.1761,23.073804 h -5.8391 v -5.839105 l 0.1007,-0.100436 5.8391,5.839105 z"
     id="path17491"
     style="stroke-width:0.583909" /><path
     fill="#231f20"
     d="m 1180.0742,111.93214 -8.9431,-8.94141 c -0.9121,-0.91265 -2.3906,-0.91265 -3.3033,0 l -24.4401,24.44249 v 12.24401 h 12.2463 l 24.4402,-24.43957 c 0.9126,-0.91557 0.9126,-2.39111 0,-3.30552 z m -26.1761,23.07381 h -5.8391 v -5.83911 l 0.1007,-0.10044 5.8391,5.83911 z"
     id="path17491-9"
     style="stroke-width:0.583909" /><path
     fill="#231f20"
     d="m 1180.0742,159.53545 -8.9431,-8.94142 c -0.9121,-0.91265 -2.3906,-0.91265 -3.3033,0 l -24.4401,24.44249 v 12.24402 h 12.2463 l 24.4402,-24.43957 c 0.9126,-0.91557 0.9126,-2.39111 0,-3.30552 z m -26.1761,23.0738 h -5.8391 v -5.8391 l 0.1007,-0.10044 5.8391,5.83911 z"
     id="path17491-1"
     style="stroke-width:0.583909" /><path
     fill="#231f20"
     d="m 1180.0742,206.89083 -8.9431,-8.94142 c -0.9121,-0.91265 -2.3906,-0.91265 -3.3033,0 l -24.4401,24.44249 v 12.24401 h 12.2463 l 24.4402,-24.43957 c 0.9126,-0.91557 0.9126,-2.3911 0,-3.30551 z m -26.1761,23.0738 h -5.8391 v -5.83911 l 0.1007,-0.10043 5.8391,5.8391 z"
     id="path17491-0"
     style="stroke-width:0.583909" /><path
     fill="#231f20"
     d="m 1180.0742,255.99143 -8.9431,-8.94142 c -0.9121,-0.91265 -2.3906,-0.91265 -3.3033,0 l -24.4401,24.44249 v 12.24401 h 12.2463 l 24.4402,-24.43957 c 0.9126,-0.91557 0.9126,-2.3911 0,-3.30551 z m -26.1761,23.0738 h -5.8391 v -5.83911 l 0.1007,-0.10043 5.8391,5.8391 z"
     id="path17491-91"
     style="stroke-width:0.583909" /><path
     fill="#231f20"
     d="m 1180.0742,303.32741 -8.9431,-8.94141 c -0.9121,-0.91265 -2.3906,-0.91265 -3.3033,0 l -24.4401,24.44249 v 12.24401 h 12.2463 l 24.4402,-24.43957 c 0.9126,-0.91557 0.9126,-2.39111 0,-3.30552 z m -26.1761,23.07381 h -5.8391 v -5.83911 l 0.1007,-0.10044 5.8391,5.83911 z"
     id="path17491-9-4"
     style="stroke-width:0.583909" /></svg>
